<svg width="180" height="35" viewBox="0 0 180 35" fill="none" xmlns="http://www.w3.org/2000/svg">
<path d="M45.955 32.13C43.345 32.13 41.34 31.775 39.94 31.065C38.54 30.365 37.84 29.41 37.84 28.2C37.84 27.66 37.975 27.205 38.245 26.835C38.515 26.455 38.835 26.145 39.205 25.905C39.575 25.665 39.915 25.48 40.225 25.35C40.535 25.22 40.735 25.125 40.825 25.065C40.655 24.965 40.43 24.835 40.15 24.675C39.87 24.515 39.615 24.295 39.385 24.015C39.165 23.735 39.055 23.37 39.055 22.92C39.055 22.4 39.3 21.92 39.79 21.48C40.29 21.04 41.035 20.725 42.025 20.535C41.055 20.065 40.31 19.435 39.79 18.645C39.27 17.845 39.01 17.01 39.01 16.14C39.01 15.12 39.305 14.245 39.895 13.515C40.495 12.785 41.325 12.225 42.385 11.835C43.445 11.445 44.68 11.25 46.09 11.25C47.13 11.25 47.99 11.365 48.67 11.595C49.35 11.825 49.985 12.135 50.575 12.525C50.845 12.415 51.25 12.255 51.79 12.045C52.33 11.825 52.885 11.6 53.455 11.37C54.025 11.13 54.495 10.935 54.865 10.785L54.835 13.8L52.15 14.28C52.43 14.91 52.57 15.525 52.57 16.125C52.57 17.025 52.315 17.86 51.805 18.63C51.305 19.39 50.55 20 49.54 20.46C48.54 20.92 47.29 21.15 45.79 21.15C45.64 21.15 45.435 21.145 45.175 21.135C44.915 21.125 44.705 21.115 44.545 21.105C43.735 21.135 43.18 21.23 42.88 21.39C42.58 21.55 42.43 21.725 42.43 21.915C42.43 22.185 42.655 22.37 43.105 22.47C43.555 22.56 44.275 22.635 45.265 22.695C45.615 22.715 46.075 22.745 46.645 22.785C47.215 22.815 47.85 22.85 48.55 22.89C50.32 23.01 51.66 23.455 52.57 24.225C53.48 24.995 53.935 25.995 53.935 27.225C53.935 28.655 53.275 29.83 51.955 30.75C50.635 31.67 48.635 32.13 45.955 32.13ZM45.91 19.005C46.86 19.005 47.63 18.765 48.22 18.285C48.81 17.795 49.105 17.105 49.105 16.215C49.105 15.305 48.81 14.59 48.22 14.07C47.63 13.55 46.86 13.29 45.91 13.29C44.94 13.29 44.155 13.55 43.555 14.07C42.965 14.59 42.67 15.305 42.67 16.215C42.67 17.085 42.955 17.77 43.525 18.27C44.095 18.76 44.89 19.005 45.91 19.005ZM46.57 29.985C49.14 29.985 50.425 29.275 50.425 27.855C50.425 27.325 50.21 26.89 49.78 26.55C49.35 26.2 48.71 25.995 47.86 25.935L43.945 25.695C43.295 25.655 42.71 25.845 42.19 26.265C41.68 26.685 41.425 27.185 41.425 27.765C41.425 28.505 41.84 29.06 42.67 29.43C43.51 29.8 44.81 29.985 46.57 29.985ZM56.7907 27V11.49H60.2857V14.85C60.6657 13.7 61.2757 12.805 62.1157 12.165C62.9657 11.515 63.9457 11.19 65.0557 11.19C65.2357 11.19 65.4057 11.2 65.5657 11.22C65.7357 11.24 65.8657 11.275 65.9557 11.325V14.82C65.8457 14.77 65.7007 14.735 65.5207 14.715C65.3507 14.695 65.2007 14.685 65.0707 14.685C63.5707 14.565 62.4207 14.8 61.6207 15.39C60.8307 15.97 60.4357 16.835 60.4357 17.985V27H56.7907ZM70.4038 20.085C70.3938 21.405 70.7138 22.49 71.3638 23.34C72.0238 24.18 72.9788 24.6 74.2288 24.6C75.0888 24.6 75.8338 24.41 76.4638 24.03C77.1038 23.64 77.5288 23.05 77.7388 22.26H81.0838C80.8938 23.34 80.4588 24.255 79.7788 25.005C79.1088 25.755 78.2888 26.325 77.3188 26.715C76.3588 27.105 75.3588 27.3 74.3188 27.3C72.8188 27.3 71.4988 26.985 70.3588 26.355C69.2288 25.715 68.3438 24.805 67.7038 23.625C67.0738 22.445 66.7588 21.04 66.7588 19.41C66.7588 17.82 67.0488 16.41 67.6288 15.18C68.2088 13.94 69.0438 12.965 70.1338 12.255C71.2238 11.545 72.5438 11.19 74.0938 11.19C76.3838 11.19 78.1288 11.905 79.3288 13.335C80.5288 14.755 81.1288 16.635 81.1288 18.975V20.085H70.4038ZM70.4038 17.82H77.6788C77.6788 16.7 77.3838 15.755 76.7938 14.985C76.2038 14.205 75.2988 13.815 74.0788 13.815C73.2788 13.815 72.6038 14.01 72.0538 14.4C71.5038 14.79 71.0888 15.295 70.8088 15.915C70.5288 16.525 70.3938 17.16 70.4038 17.82ZM86.3959 20.085C86.3859 21.405 86.7059 22.49 87.3559 23.34C88.0159 24.18 88.9709 24.6 90.2209 24.6C91.0809 24.6 91.8259 24.41 92.4559 24.03C93.0959 23.64 93.5209 23.05 93.7309 22.26H97.0759C96.8859 23.34 96.4509 24.255 95.7709 25.005C95.1009 25.755 94.2809 26.325 93.3109 26.715C92.3509 27.105 91.3509 27.3 90.3109 27.3C88.8109 27.3 87.4909 26.985 86.3509 26.355C85.2209 25.715 84.3359 24.805 83.6959 23.625C83.0659 22.445 82.7509 21.04 82.7509 19.41C82.7509 17.82 83.0409 16.41 83.6209 15.18C84.2009 13.94 85.0359 12.965 86.1259 12.255C87.2159 11.545 88.5359 11.19 90.0859 11.19C92.3759 11.19 94.1209 11.905 95.3209 13.335C96.5209 14.755 97.1209 16.635 97.1209 18.975V20.085H86.3959ZM86.3959 17.82H93.6709C93.6709 16.7 93.3759 15.755 92.7859 14.985C92.1959 14.205 91.2909 13.815 90.0709 13.815C89.2709 13.815 88.5959 14.01 88.0459 14.4C87.4959 14.79 87.0809 15.295 86.8009 15.915C86.5209 16.525 86.3859 17.16 86.3959 17.82ZM99.5231 27V11.49H103.093V13.71C103.453 13.11 104.008 12.56 104.758 12.06C105.518 11.56 106.518 11.31 107.758 11.31C108.718 11.31 109.608 11.5 110.428 11.88C111.258 12.26 111.923 12.855 112.423 13.665C112.933 14.475 113.188 15.52 113.188 16.8V27H109.528V17.235C109.528 16.225 109.243 15.47 108.673 14.97C108.113 14.47 107.413 14.22 106.573 14.22C105.693 14.22 104.903 14.44 104.203 14.88C103.513 15.32 103.168 15.985 103.168 16.875V27H99.5231ZM116.101 27V11.49H119.656V13.71C120.096 13.03 120.701 12.44 121.471 11.94C122.251 11.44 123.246 11.19 124.456 11.19C125.276 11.19 126.106 11.405 126.946 11.835C127.796 12.255 128.436 12.875 128.866 13.695C129.356 12.965 130.006 12.365 130.816 11.895C131.636 11.425 132.556 11.19 133.576 11.19C134.136 11.19 134.711 11.28 135.301 11.46C135.891 11.64 136.436 11.94 136.936 12.36C137.446 12.78 137.856 13.355 138.166 14.085C138.476 14.805 138.631 15.71 138.631 16.8V27H134.986V17.235C134.986 16.085 134.696 15.295 134.116 14.865C133.536 14.425 132.891 14.205 132.181 14.205C131.751 14.205 131.301 14.29 130.831 14.46C130.361 14.63 129.966 14.91 129.646 15.3C129.326 15.69 129.166 16.215 129.166 16.875V27H125.521V16.65C125.521 16.11 125.381 15.66 125.101 15.3C124.821 14.94 124.466 14.67 124.036 14.49C123.606 14.3 123.176 14.205 122.746 14.205C122.296 14.205 121.836 14.3 121.366 14.49C120.906 14.68 120.521 14.97 120.211 15.36C119.901 15.75 119.746 16.255 119.746 16.875V27H116.101ZM145.863 27.3C144.373 27.3 143.138 26.9 142.158 26.1C141.178 25.29 140.688 24.15 140.688 22.68C140.688 20.97 141.303 19.68 142.533 18.81C143.773 17.94 145.748 17.485 148.458 17.445L150.768 17.385V16.335C150.768 15.515 150.523 14.875 150.033 14.415C149.543 13.955 148.793 13.725 147.783 13.725C147.023 13.735 146.333 13.915 145.713 14.265C145.093 14.615 144.683 15.19 144.483 15.99H141.378C141.458 14.4 142.093 13.205 143.283 12.405C144.483 11.595 146.038 11.19 147.948 11.19C150.158 11.19 151.763 11.625 152.763 12.495C153.773 13.355 154.278 14.565 154.278 16.125V27H151.203L150.918 24.21C150.348 25.38 149.638 26.19 148.788 26.64C147.938 27.08 146.963 27.3 145.863 27.3ZM147.048 24.825C147.648 24.825 148.233 24.685 148.803 24.405C149.373 24.115 149.843 23.745 150.213 23.295C150.583 22.845 150.768 22.365 150.768 21.855V19.41L148.863 19.44C147.453 19.46 146.318 19.685 145.458 20.115C144.598 20.545 144.168 21.275 144.168 22.305C144.168 23.095 144.443 23.715 144.993 24.165C145.543 24.605 146.228 24.825 147.048 24.825ZM157.549 27V11.49H161.044V14.85C161.424 13.7 162.034 12.805 162.874 12.165C163.724 11.515 164.704 11.19 165.814 11.19C165.994 11.19 166.164 11.2 166.324 11.22C166.494 11.24 166.624 11.275 166.714 11.325V14.82C166.604 14.77 166.459 14.735 166.279 14.715C166.109 14.695 165.959 14.685 165.829 14.685C164.329 14.565 163.179 14.8 162.379 15.39C161.589 15.97 161.194 16.835 161.194 17.985V27H157.549ZM177.556 14.07H174.091L174.106 22.965C174.106 23.655 174.226 24.085 174.466 24.255C174.706 24.415 175.126 24.495 175.726 24.495H177.631V26.805C177.431 26.885 177.126 26.955 176.716 27.015C176.306 27.085 175.766 27.12 175.096 27.12C173.866 27.12 172.916 26.96 172.246 26.64C171.576 26.32 171.106 25.86 170.836 25.26C170.576 24.65 170.446 23.93 170.446 23.1V14.07H167.926V11.49H170.551L171.466 6.885H174.091V11.475H177.556V14.07Z" fill="#212B36"/>
<path d="M31.1392 9.08407L26.5275 12.0085C21.4847 3.80377 12.0452 5.99713 8.24259 10.0589C4.43998 14.1207 3.22639 23.3815 11.0743 27.9307C18.9223 32.4799 26.932 25.4936 26.932 23.0566C17.6278 14.933 10.7507 22.8129 10.3462 22.7316C9.94163 22.6504 6.70537 20.457 8.64713 17.2888C21.1067 8.75913 31.4628 19.1573 33 22.163C32.8382 28.4181 21.2686 37.6789 11.7216 34.267C2.17462 30.8552 -0.738018 22.8129 0.151954 15.258C1.04193 7.70307 7.19082 2.50401 14.3106 1.04177C23.5663 0.456873 29.3862 6.1596 31.1392 9.08407Z" fill="#00AB55"/>
<path d="M25.1523 22.8941C19.7154 26.2085 13.286 25.954 10.751 25.4124C10.751 25.0333 10.8157 24.2751 11.0746 24.2751C20.2979 25.6561 21.3497 23.6252 25.1523 22.8941Z" fill="#00AB55"/>
</svg>
